<?xml version="1.0" encoding="UTF-8" standalone="no"?>
<svg
   xmlns:dc="http://purl.org/dc/elements/1.1/"
   xmlns:cc="http://creativecommons.org/ns#"
   xmlns:rdf="http://www.w3.org/1999/02/22-rdf-syntax-ns#"
   xmlns:svg="http://www.w3.org/2000/svg"
   xmlns="http://www.w3.org/2000/svg"
   viewBox="0 0 311.09332 56.693333"
   height="56.693333"
   width="311.09332"
   xml:space="preserve"
   id="svg2"
   version="1.1"><metadata
     id="metadata8"><rdf:RDF><cc:Work
         rdf:about=""><dc:format>image/svg+xml</dc:format><dc:type
           rdf:resource="http://purl.org/dc/dcmitype/StillImage" /></cc:Work></rdf:RDF></metadata><defs
     id="defs6" /><g
     transform="matrix(1.3333333,0,0,-1.3333333,0,56.693333)"
     id="g10"><g
       transform="scale(0.1)"
       id="g12"><path
         id="path14"
         style="fill:#231f20;fill-opacity:1;fill-rule:nonzero;stroke:none"
         d="m 348.5,173.906 5.406,-2.808 -0.539,-0.633 c -1.762,-2.137 -2.547,-3.238 -3.379,-5.641 -0.41,-1.097 -0.906,-3.191 -0.082,-4.781 0.403,-0.832 1.125,-1.445 2.157,-1.773 2.406,-0.813 4.476,1.281 6.855,3.707 3.328,3.378 7.449,7.554 14.113,5.312 6.77,-2.301 9.071,-8.324 6.27,-16.531 -0.848,-2.504 -2.403,-4.641 -3.828,-6.617 l -0.332,-0.426 -5.59,2.601 0.562,0.657 c 0.664,0.789 2.996,3.519 3.871,6.23 0.852,2.379 0.766,6.41 -2.855,7.633 -3,1.039 -5.262,-1.285 -7.887,-3.992 -3.191,-3.36 -6.855,-7.149 -12.894,-5.086 -2.653,0.894 -4.641,2.582 -5.758,4.824 -1.363,2.75 -1.41,6.25 -0.141,9.91 0.801,2.469 2.168,5.012 3.739,6.985 z m -13.66,-30.254 31.527,-18.281 -3.207,-5.535 -31.695,18.34 z m -12.442,-18.121 27.219,-24.285 -4.898,-5.7421 c 0,0 -25.524,7.4491 -29.399,8.4881 2.879,-2.746 18.711,-19.4412 18.711,-19.4412 l -4.777,-4.3164 -25.649,26.0586 6.024,5.395 c 0,0 24.629,-7.348 28.5,-8.368 -2.875,2.731 -19.871,17.348 -19.871,17.348 z M 290.313,69.7891 c 0.933,0.4492 3.355,1.7734 5.761,3.2187 2.149,1.3047 3.867,2.3828 4.739,3.0703 -1.266,0.9571 -11.016,8.3711 -13.04,9.9375 0.411,-2.5429 2.29,-14.6367 2.54,-16.2265 z m -3.579,24.2304 31.215,-22.8672 -5.547,-3.9062 c 0,0 -6.269,4.7656 -6.894,5.2305 -0.371,-0.2032 -3.582,-2.4805 -7.055,-4.5391 -3.273,-1.9766 -6.812,-3.7227 -7.168,-3.9297 0.153,-0.8164 1.371,-8.4726 1.371,-8.4726 l -5.961,-2.8438 -5.242,38.2695 z M 251.898,72.3789 c 0.309,-1.0625 2.961,-9.5312 3.274,-10.5664 1.316,0.3828 4.199,1.3008 4.199,1.3008 0.949,0.2851 3.207,1.1797 4.281,3.2344 0.352,0.6718 0.536,1.4257 0.536,2.2031 0,0.5898 -0.122,1.1992 -0.305,1.8476 -0.41,1.2461 -1.164,2.1993 -2.301,2.7891 -1.941,1.0391 -4.551,0.7773 -6.191,0.2891 0,0 -2.602,-0.8164 -3.493,-1.0977 z m 13.372,6.5313 c 2.363,-1.2383 4.078,-3.4414 5.007,-6.5586 0.414,-1.3203 0.645,-2.5821 0.645,-3.8008 0,-5.0313 -3.52,-8.9805 -9.875,-10.9766 0,0 -3.211,-0.9961 -4.16,-1.2812 0.375,-1.1407 4.16,-13.3321 4.16,-13.3321 L 254.73,41.3281 244.027,76 l 9.567,2.9727 c 4.781,1.4882 8.754,1.4648 11.676,-0.0625 z m -113.707,7.2461 c 0,0 5.839,-2.9102 14.121,-5.7344 5.648,-1.961 10.449,-3.4844 15.152,-4.5235 l -1.641,-5.4765 c 0,0 -4.488,0.7929 -11.793,3.0351 -0.422,-1.1992 -9.918,-28.3398 -9.918,-28.3398 l -6.504,2.2539 c 0,0 9.465,27.1836 9.875,28.3672 -6.812,2.543 -11.542,5.0664 -11.542,5.0664 z M 112.832,84 c 0.645,-0.5469 2.984,-2.4414 5.406,-4.1719 2.461,-1.7148 4.926,-3.3398 5.649,-3.6679 0.351,1.5898 2.875,14.1132 3.394,16.4336 -2.047,-1.2227 -13,-7.7344 -14.449,-8.5938 z m 15.961,16.168 5.465,-3.9141 -7.078,-38.0703 -6.274,3.6016 c 0,0 1.574,7.7617 1.758,8.5117 -0.305,0.2461 -3.953,2.4258 -7.492,4.9258 -3.602,2.5703 -7.102,5.4609 -7.434,5.6836 -0.675,-0.4102 -7.609,-4.5 -7.609,-4.5 l -5.3634,4.5781 33.6754,18.9765 z m -25.586,24.207 4.391,-5.297 -27.6136,-23.0858 -4.4727,5.2928 27.3633,22.863 z m -19.9492,32.367 c 0,0 2.793,-5.941 5.0664,-10.156 2.2578,-4.219 5.3438,-9.305 5.3438,-9.305 l -4.9922,-2.91 c 0,0 -3.7891,6.309 -7.2656,13.598 -0.9493,-0.489 -6.9336,-3.606 -7.9258,-4.09 0.5781,-1.063 6.707,-12.867 6.707,-12.867 l -5.0547,-2.91 c 0,0 -6.2109,12.07 -6.7422,13.089 -1.0781,-0.531 -13.9765,-7.187 -13.9765,-7.187 l -3.086,6.129 31.5743,16.43 z M 401.703,212.59 c 0,56.453 -24.883,107.168 -64.191,141.879 L 261.746,161.953 c 5.035,-31.449 -4.285,-56.699 -26.906,-64.1913 -14.652,-4.8633 -15.465,-12.2734 -15.465,-34.2226 0,-1.1797 0,1.6523 0,-2.625 0,-15.5977 1.184,-28.9102 2.258,-37.1993 100.086,4.7266 180.07,87.6292 180.07,188.8752 z m -188.414,5.308 0.891,7.168 c 3.668,16.657 15.754,14.579 24.14,30.926 0.039,0.063 0.141,0.246 0.141,0.246 0.25,0.614 41.34,88.766 58.48,125.575 -25.398,12.703 -54.031,19.89 -84.336,19.89 -30.281,0 -58.933,-7.187 -84.351,-19.89 17.141,-36.809 58.211,-124.961 58.543,-125.575 0,0 0.078,-0.183 0.121,-0.246 8.348,-16.347 20.41,-14.269 24.078,-30.926 l 0.891,-7.168 z m -0.805,-22.332 c -12.773,2.852 -28.691,15.536 -30.761,31.864 -0.746,6.207 -1.348,7.941 -0.434,20.273 l -58.086,131.481 c -4.672,-2.524 -9.234,-5.254 -13.699,-8.164 17.367,-39.028 70.461,-158.247 70.5,-158.391 8.402,-17.691 23.144,-18.039 28.234,-28.586 3.067,-6.25 3.34,-11.848 3.379,-12.297 h 1.942 c 0.039,0.449 0.351,6.047 3.375,12.297 5.113,10.547 19.851,10.895 28.238,28.586 0.039,0.144 53.152,119.363 70.504,158.391 -4.41,2.91 -9.012,5.64 -13.707,8.164 l -58.02,-131.481 c 0.91,-12.332 0.309,-14.066 -0.496,-20.273 -2.07,-16.328 -17.992,-29.012 -30.699,-31.864 z m 0.039,-49.105 c -30.117,7.023 -41.296,34.465 -41.296,58.836 l -66.282,162.672 c -4.324,-2.992 -8.5231,-6.192 -12.5856,-9.508 14.5786,-34.551 80.0036,-189.809 80.0896,-190.035 11.574,-27.891 32.645,-18.645 37.739,-41.672 1.218,-5.578 1.3,-8.02 1.3,-8.02 h 2.258 c 0,0 0.043,2.442 1.305,8.02 5.09,23.027 26.101,13.781 37.691,41.672 0.086,0.226 65.516,155.484 80.071,190.035 -4.059,3.316 -8.239,6.516 -12.586,9.508 L 253.969,205.297 c 0,-24.371 -11.199,-51.813 -41.324,-58.836 z M 203.539,23.7148 c 1.141,8.2891 2.258,21.6016 2.258,37.1993 0,4.2773 0,1.4453 0,2.625 0,21.9492 -0.809,29.3593 -15.461,34.2226 -22.625,7.4923 -31.879,32.7423 -26.914,64.1913 L 87.7227,354.469 C 48.3555,319.758 23.5156,269.043 23.5156,212.59 23.5156,111.344 103.52,28.4414 203.539,23.7148 Z M 331.344,243.613 c 0,16.45 4.031,29.828 15.668,29.828 11.676,0 15.879,-13.378 15.879,-29.828 0,-16.449 -4.203,-29.843 -15.879,-29.843 -11.637,0 -15.668,13.394 -15.668,29.843 z m -20.66,0 c 0,-25.179 11.675,-44.32 36.328,-44.32 24.718,0 36.519,19.141 36.519,44.32 0,25.188 -11.801,44.321 -36.519,44.321 -24.653,0 -36.328,-19.133 -36.328,-44.321 z m -89.817,83.903 h -17.82 l 8.301,37.273 h 1.363 z m 8.508,-33.672 h 20.453 l -23.769,85.707 h -26.141 l -24.637,-85.707 h 18.942 l 5.445,19.152 h 24.801 z M 51.7031,200.762 h 19.3985 v 35.828 h 32.5864 v 15.008 H 71.1016 v 19.91 h 33.6604 v 14.961 H 51.7031 Z m 160.0939,95.664 c 0.273,0 17.269,-18.199 17.269,-32.778 0,-15.777 -12.296,-19.546 -16.461,-19.546 -0.207,0 -0.457,0.023 -0.718,0.043 h -0.168 c -0.27,-0.02 -0.543,-0.043 -0.723,-0.043 -4.141,0 -16.461,3.769 -16.461,19.546 0,14.579 16.953,32.778 17.262,32.778 z M 212.605,0 C 95.3867,0 0,95.3594 0,212.59 c 0,117.223 95.3867,212.605 212.605,212.605 117.223,0 212.59,-95.382 212.59,-212.605 C 425.195,95.3594 329.828,0 212.605,0" /><path
         id="path16"
         style="fill:#231f20;fill-opacity:1;fill-rule:nonzero;stroke:none"
         d="m 538.723,210.238 c 9.711,0 17.504,8.285 17.504,31.313 0,23.027 -7.793,31.289 -17.504,31.289 -9.715,0 -17.512,-8.262 -17.512,-31.289 0,-23.028 7.797,-31.313 17.512,-31.313 z m 0,74.36 c 17.382,0 33.332,-12.957 33.332,-43.047 0,-30.11 -15.95,-43.055 -33.332,-43.055 -17.391,0 -33.34,12.945 -33.34,43.055 0,30.09 15.949,43.047 33.34,43.047" /><path
         id="path18"
         style="fill:#231f20;fill-opacity:1;fill-rule:nonzero;stroke:none"
         d="m 584.742,251.266 c 0,3.836 -0.125,7.429 -0.48,10.199 h 13.426 c 0.121,-3.727 0.476,-7.563 0.476,-11.281 h 0.25 c 1.797,4.796 6.469,12.238 15.703,12.238 0.965,0 1.68,-0.246 2.524,-0.367 v -13.907 c -1.325,0.36 -2.637,0.59 -4.203,0.59 -6.11,0 -12.825,-3.703 -12.825,-15.226 v -33.817 h -14.871 v 51.571" /><path
         id="path20"
         style="fill:#231f20;fill-opacity:1;fill-rule:nonzero;stroke:none"
         d="m 648.633,210.605 c 9.355,0 13.07,6.719 13.07,20.747 0,12.949 -4.918,19.914 -11.992,19.789 -7.793,-0.121 -10.785,-7.309 -10.785,-19.911 0,-14.507 4.672,-20.625 9.707,-20.625 z m -21.465,-20.5 c 3.48,-1.921 10.434,-5.281 18.227,-5.281 14.031,0 16.308,9.723 16.308,19.434 v 5.871 h -0.234 c -2.403,-4.793 -6.598,-10.434 -16.317,-10.434 -8.629,0 -21.578,5.766 -21.578,30.7 0,17.031 6.117,32.027 22.301,32.027 8.996,0 13.191,-5.16 16.309,-10.559 h 0.476 c 0,3.239 0.367,6.364 0.488,9.602 h 13.43 c -0.234,-3.238 -0.48,-6.485 -0.48,-9.723 v -45.574 c 0,-19.297 -5.871,-33.102 -28.543,-33.102 -9.828,0 -17.629,2.524 -21.223,3.848 l 0.836,13.191" /><path
         id="path22"
         style="fill:#231f20;fill-opacity:1;fill-rule:nonzero;stroke:none"
         d="m 721.887,229.918 h -1.324 c -12.708,0 -20.27,-2.637 -20.27,-11.637 0,-5.64 3.715,-9.465 9.477,-9.465 8.878,0 12.117,6.594 12.117,17.618 z m -29.27,27.941 c 4.203,1.914 10.078,4.563 19.555,4.563 19.191,0 23.629,-9.367 23.629,-24.828 v -26.989 c 0,-4.437 0.476,-8.507 0.836,-10.91 h -13.43 c -0.723,2.403 -0.844,5.399 -0.844,8.387 h -0.246 c -3.715,-5.027 -8.387,-9.344 -17.262,-9.344 -9.601,0 -18.464,6.598 -18.464,18.098 0,16.797 13.668,20.992 32.492,20.992 h 3.004 v 2.277 c 0,6.122 -3.004,11.758 -11.516,11.758 -7.441,0 -14.039,-3.593 -16.91,-5.996 l -0.844,11.992" /><path
         id="path24"
         style="fill:#231f20;fill-opacity:1;fill-rule:nonzero;stroke:none"
         d="m 749.563,251.266 c 0,3.836 -0.125,7.429 -0.481,10.199 h 13.906 c 0.121,-3.125 0.481,-6.363 0.481,-9.488 h 0.242 c 2.156,3.726 6.352,10.445 16.43,10.445 14.023,0 18.226,-10.445 18.226,-22.906 V 199.695 H 783.5 v 37.051 c 0,9.481 -2.402,13.438 -8.52,13.438 -7.789,0 -10.546,-6.594 -10.546,-14.516 v -35.973 h -14.871 v 51.571" /><path
         id="path26"
         style="fill:#231f20;fill-opacity:1;fill-rule:nonzero;stroke:none"
         d="m 813.215,261.465 h 14.871 v -61.77 h -14.871 z m -0.235,26.258 h 15.348 V 273.086 H 812.98 v 14.637" /><path
         id="path28"
         style="fill:#231f20;fill-opacity:1;fill-rule:nonzero;stroke:none"
         d="m 839.586,212.52 26.387,37.664 h -25.551 v 11.281 h 40.422 v -12.727 l -25.906,-37.765 h 26.742 v -11.278 h -42.094 v 12.825" /><path
         id="path30"
         style="fill:#231f20;fill-opacity:1;fill-rule:nonzero;stroke:none"
         d="m 923.992,229.918 h -1.32 c -12.715,0 -20.27,-2.637 -20.27,-11.637 0,-5.64 3.727,-9.465 9.477,-9.465 8.879,0 12.113,6.594 12.113,17.618 z m -29.265,27.941 c 4.203,1.914 10.078,4.563 19.554,4.563 19.192,0 23.629,-9.367 23.629,-24.828 v -26.989 c 0,-4.437 0.481,-8.507 0.836,-10.91 h -13.437 c -0.715,2.403 -0.836,5.399 -0.836,8.387 h -0.243 c -3.718,-5.027 -8.39,-9.344 -17.265,-9.344 -9.602,0 -18.469,6.598 -18.469,18.098 0,16.797 13.672,20.992 32.496,20.992 h 3 v 2.277 c 0,6.122 -3,11.758 -11.512,11.758 -7.441,0 -14.027,-3.593 -16.91,-5.996 l -0.843,11.992" /><path
         id="path32"
         style="fill:#231f20;fill-opacity:1;fill-rule:nonzero;stroke:none"
         d="m 993.637,201.254 c -3.465,-1.313 -8.625,-2.516 -14.621,-2.516 -20.395,0 -29.028,14.27 -29.028,31.778 0,17.632 9.114,31.906 29.86,31.906 4.683,0 10.203,-1.445 12.957,-2.524 l -0.848,-11.75 c -2.633,1.317 -6.348,2.993 -10.43,2.993 -11.269,0 -16.183,-7.551 -16.183,-20.746 0,-11.512 5.515,-20.391 16.906,-20.391 3.594,0 8.508,1.68 10.555,3.004 l 0.832,-11.754" /><path
         id="path34"
         style="fill:#231f20;fill-opacity:1;fill-rule:nonzero;stroke:none"
         d="m 1004.17,261.465 h 14.88 v -61.77 h -14.88 z m -0.23,26.258 h 15.35 v -14.637 h -15.35 v 14.637" /><path
         id="path36"
         style="fill:#231f20;fill-opacity:1;fill-rule:nonzero;stroke:none"
         d="m 1060.05,285.566 h 13.91 l -12.23,-17.273 h -9.36 z m -0.6,-76.285 c 9.6,0 11.76,11.035 11.76,21.36 0,10.3 -2.16,21.222 -11.76,21.222 -9.59,0 -11.87,-10.922 -11.87,-21.222 0,-10.325 2.28,-21.36 11.87,-21.36 z m 0,53.141 c 12.59,0 27.11,-6.598 27.11,-31.781 0,-25.907 -14.52,-31.903 -27.11,-31.903 -12.59,0 -27.22,5.996 -27.22,31.903 0,25.183 14.63,31.781 27.22,31.781" /><path
         id="path38"
         style="fill:#231f20;fill-opacity:1;fill-rule:nonzero;stroke:none"
         d="m 1098.28,251.266 c 0,3.836 -0.12,7.429 -0.48,10.199 h 13.91 c 0.12,-3.125 0.48,-6.363 0.48,-9.488 h 0.24 c 2.16,3.726 6.35,10.445 16.43,10.445 14.03,0 18.23,-10.445 18.23,-22.906 v -39.821 h -14.87 v 37.051 c 0,9.481 -2.4,13.438 -8.52,13.438 -7.79,0 -10.55,-6.594 -10.55,-14.516 v -35.973 h -14.87 v 51.571" /><path
         id="path40"
         style="fill:#231f20;fill-opacity:1;fill-rule:nonzero;stroke:none"
         d="m 1215.77,209.648 c 8.76,0 11.75,9.469 11.75,21.114 0,11.992 -3.36,20.746 -11.51,20.746 -8.28,0 -11.15,-8.043 -11.15,-20.399 0,-14.273 2.28,-21.461 10.91,-21.461 z m 26.62,79.989 v -79.399 c 0,-4.422 0.12,-8.261 0.48,-10.543 h -13.91 c -0.24,1.793 -0.47,5.399 -0.47,9.586 h -0.37 c -2.39,-5.269 -6.83,-10.543 -16.43,-10.543 -15.35,0 -21.7,14.625 -21.7,31.778 0,20.148 8.03,31.906 21.34,31.906 8.88,0 13.8,-5.039 15.96,-9.832 h 0.23 v 37.047 h 14.87" /><path
         id="path42"
         style="fill:#231f20;fill-opacity:1;fill-rule:nonzero;stroke:none"
         d="m 1290.1,235.914 c 0,10.91 -3.6,16.43 -10.32,16.43 -7.79,0 -11.03,-8.278 -11.03,-16.43 z m 11.27,-33.223 c -3.12,-1.312 -9.59,-3.953 -18.46,-3.953 -19.92,0 -28.55,14.27 -28.55,30.946 0,18.464 9.71,32.738 25.42,32.738 13.31,0 24.7,-7.797 24.7,-32.984 v -2.879 h -35.73 c 0,-10.559 4.2,-16.911 15.71,-16.911 9.11,0 13.43,2.758 16.18,4.793 l 0.73,-11.75" /><path
         id="path44"
         style="fill:#231f20;fill-opacity:1;fill-rule:nonzero;stroke:none"
         d="m 1348.58,289.637 h 14.87 v -89.942 h -14.87 v 89.942" /><path
         id="path46"
         style="fill:#231f20;fill-opacity:1;fill-rule:nonzero;stroke:none"
         d="m 1410.57,229.918 h -1.32 c -12.71,0 -20.27,-2.637 -20.27,-11.637 0,-5.64 3.72,-9.465 9.48,-9.465 8.87,0 12.11,6.594 12.11,17.618 z m -29.27,27.941 c 4.21,1.914 10.08,4.563 19.56,4.563 19.19,0 23.63,-9.367 23.63,-24.828 v -26.989 c 0,-4.437 0.48,-8.507 0.83,-10.91 h -13.43 c -0.72,2.403 -0.84,5.399 -0.84,8.387 h -0.24 c -3.72,-5.027 -8.39,-9.344 -17.27,-9.344 -9.6,0 -18.46,6.598 -18.46,18.098 0,16.797 13.67,20.992 32.49,20.992 h 3 v 2.277 c 0,6.122 -3,11.758 -11.51,11.758 -7.44,0 -14.04,-3.593 -16.91,-5.996 l -0.85,11.992" /><path
         id="path48"
         style="fill:#231f20;fill-opacity:1;fill-rule:nonzero;stroke:none"
         d="m 1436.57,214.086 c 2.39,-0.957 8.51,-4.082 15.47,-4.082 5.4,0 9.59,1.324 9.59,6.117 0,2.402 -1.2,4.684 -6.6,7.801 l -6.11,3.601 c -6.23,3.707 -13.08,7.676 -13.08,17.387 0,8.512 8.28,17.512 21.35,17.512 7.92,0 14.04,-2.035 15.48,-2.524 l -0.84,-11.515 c -3.72,1.437 -7.67,2.758 -13.08,2.758 -6,0 -8.51,-2.278 -8.51,-5.996 0,-3.36 2.64,-5.161 6.95,-7.911 l 7.32,-4.679 c 7.68,-4.918 11.52,-8.391 11.52,-15.598 0,-11.375 -9.6,-18.219 -23.03,-18.219 -7.68,0 -14.04,1.793 -17.16,2.996 l 0.73,12.352" /><path
         id="path50"
         style="fill:#231f20;fill-opacity:1;fill-rule:nonzero;stroke:none"
         d="m 1520.24,283.406 h 18.23 l 27.82,-65.726 h 0.25 v 65.726 h 13.9 v -83.711 h -18.34 l -27.71,65.243 h -0.23 v -65.243 h -13.92 v 83.711" /><path
         id="path52"
         style="fill:#231f20;fill-opacity:1;fill-rule:nonzero;stroke:none"
         d="m 1628.14,229.918 h -1.32 c -12.7,0 -20.27,-2.637 -20.27,-11.637 0,-5.64 3.72,-9.465 9.48,-9.465 8.88,0 12.11,6.594 12.11,17.618 z m -29.26,27.941 c 4.2,1.914 10.08,4.563 19.55,4.563 19.19,0 23.63,-9.367 23.63,-24.828 v -26.989 c 0,-4.437 0.47,-8.507 0.83,-10.91 h -13.42 c -0.72,2.403 -0.85,5.399 -0.85,8.387 h -0.25 c -3.71,-5.027 -8.38,-9.344 -17.26,-9.344 -9.6,0 -18.46,6.598 -18.46,18.098 0,16.797 13.67,20.992 32.49,20.992 h 3 v 2.277 c 0,6.122 -3,11.758 -11.51,11.758 -7.44,0 -14.04,-3.593 -16.91,-5.996 l -0.84,11.992" /><path
         id="path54"
         style="fill:#231f20;fill-opacity:1;fill-rule:nonzero;stroke:none"
         d="m 1697.79,201.254 c -3.47,-1.313 -8.63,-2.516 -14.63,-2.516 -20.39,0 -29.02,14.27 -29.02,31.778 0,17.632 9.11,31.906 29.85,31.906 4.69,0 10.2,-1.445 12.96,-2.524 l -0.84,-11.75 c -2.64,1.317 -6.35,2.993 -10.44,2.993 -11.26,0 -16.18,-7.551 -16.18,-20.746 0,-11.512 5.51,-20.391 16.91,-20.391 3.59,0 8.51,1.68 10.55,3.004 l 0.84,-11.754" /><path
         id="path56"
         style="fill:#231f20;fill-opacity:1;fill-rule:nonzero;stroke:none"
         d="m 1708.33,261.465 h 14.87 v -61.77 h -14.87 z m -0.24,26.258 h 15.35 v -14.637 h -15.35 v 14.637" /><path
         id="path58"
         style="fill:#231f20;fill-opacity:1;fill-rule:nonzero;stroke:none"
         d="m 1763.6,209.281 c 9.6,0 11.76,11.035 11.76,21.36 0,10.3 -2.16,21.222 -11.76,21.222 -9.59,0 -11.87,-10.922 -11.87,-21.222 0,-10.325 2.28,-21.36 11.87,-21.36 z m 0,53.141 c 12.59,0 27.1,-6.598 27.1,-31.781 0,-25.907 -14.51,-31.903 -27.1,-31.903 -12.59,0 -27.22,5.996 -27.22,31.903 0,25.183 14.63,31.781 27.22,31.781" /><path
         id="path60"
         style="fill:#231f20;fill-opacity:1;fill-rule:nonzero;stroke:none"
         d="m 1802.43,251.266 c 0,3.836 -0.12,7.429 -0.48,10.199 h 13.91 c 0.12,-3.125 0.48,-6.363 0.48,-9.488 h 0.24 c 2.16,3.726 6.35,10.445 16.43,10.445 14.03,0 18.23,-10.445 18.23,-22.906 v -39.821 h -14.87 v 37.051 c 0,9.481 -2.41,13.438 -8.52,13.438 -7.79,0 -10.55,-6.594 -10.55,-14.516 v -35.973 h -14.87 v 51.571" /><path
         id="path62"
         style="fill:#231f20;fill-opacity:1;fill-rule:nonzero;stroke:none"
         d="m 1898.71,235.914 c 0,10.91 -3.61,16.43 -10.33,16.43 -7.78,0 -11.02,-8.278 -11.02,-16.43 z m 11.27,-33.223 c -3.12,-1.312 -9.59,-3.953 -18.47,-3.953 -19.91,0 -28.54,14.27 -28.54,30.946 0,18.464 9.71,32.738 25.41,32.738 13.32,0 24.71,-7.797 24.71,-32.984 v -2.879 h -35.73 c 0,-10.559 4.19,-16.911 15.71,-16.911 9.11,0 13.42,2.758 16.18,4.793 l 0.73,-11.75" /><path
         id="path64"
         style="fill:#231f20;fill-opacity:1;fill-rule:nonzero;stroke:none"
         d="m 1922.9,214.086 c 2.39,-0.957 8.51,-4.082 15.47,-4.082 5.4,0 9.59,1.324 9.59,6.117 0,2.402 -1.2,4.684 -6.59,7.801 l -6.12,3.601 c -6.23,3.707 -13.07,7.676 -13.07,17.387 0,8.512 8.27,17.512 21.35,17.512 7.92,0 14.03,-2.035 15.47,-2.524 l -0.85,-11.515 c -3.71,1.437 -7.67,2.758 -13.07,2.758 -5.99,0 -8.51,-2.278 -8.51,-5.996 0,-3.36 2.64,-5.161 6.96,-7.911 l 7.31,-4.679 c 7.68,-4.918 11.52,-8.391 11.52,-15.598 0,-11.375 -9.6,-18.219 -23.03,-18.219 -7.67,0 -14.04,1.793 -17.15,2.996 l 0.72,12.352" /><path
         id="path66"
         style="fill:#231f20;fill-opacity:1;fill-rule:nonzero;stroke:none"
         d="m 2021.32,283.406 v -54.211 c 0,-13.906 4.2,-18.468 13.2,-18.468 8.75,0 13.07,4.562 13.07,18.468 v 54.211 h 15.35 v -54.211 c 0,-22.07 -12.72,-30.699 -28.42,-30.699 -15.83,0 -28.54,8.629 -28.54,30.699 v 54.211 h 15.34" /><path
         id="path68"
         style="fill:#231f20;fill-opacity:1;fill-rule:nonzero;stroke:none"
         d="m 2077.78,251.266 c 0,3.836 -0.12,7.429 -0.48,10.199 h 13.91 c 0.12,-3.125 0.47,-6.363 0.47,-9.488 h 0.25 c 2.16,3.726 6.35,10.445 16.43,10.445 14.02,0 18.23,-10.445 18.23,-22.906 v -39.821 h -14.87 v 37.051 c 0,9.481 -2.4,13.438 -8.52,13.438 -7.79,0 -10.55,-6.594 -10.55,-14.516 v -35.973 h -14.87 v 51.571" /><path
         id="path70"
         style="fill:#231f20;fill-opacity:1;fill-rule:nonzero;stroke:none"
         d="m 2141.43,261.465 h 14.87 v -61.77 h -14.87 z m -0.23,26.258 h 15.35 v -14.637 h -15.35 v 14.637" /><path
         id="path72"
         style="fill:#231f20;fill-opacity:1;fill-rule:nonzero;stroke:none"
         d="m 2195.27,209.648 c 8.75,0 11.75,9.469 11.75,21.114 0,11.992 -3.36,20.746 -11.52,20.746 -8.27,0 -11.14,-8.043 -11.14,-20.399 0,-14.273 2.28,-21.461 10.91,-21.461 z m 26.61,79.989 v -79.399 c 0,-4.422 0.13,-8.261 0.48,-10.543 h -13.9 c -0.24,1.793 -0.48,5.399 -0.48,9.586 h -0.36 c -2.4,-5.269 -6.83,-10.543 -16.43,-10.543 -15.36,0 -21.71,14.625 -21.71,31.778 0,20.148 8.03,31.906 21.35,31.906 8.88,0 13.79,-5.039 15.95,-9.832 h 0.24 v 37.047 h 14.86" /><path
         id="path74"
         style="fill:#231f20;fill-opacity:1;fill-rule:nonzero;stroke:none"
         d="m 2267.79,229.918 h -1.32 c -12.71,0 -20.26,-2.637 -20.26,-11.637 0,-5.64 3.72,-9.465 9.47,-9.465 8.88,0 12.11,6.594 12.11,17.618 z m -29.26,27.941 c 4.2,1.914 10.08,4.563 19.56,4.563 19.18,0 23.62,-9.367 23.62,-24.828 v -26.989 c 0,-4.437 0.48,-8.507 0.83,-10.91 h -13.43 c -0.72,2.403 -0.84,5.399 -0.84,8.387 h -0.24 c -3.72,-5.027 -8.39,-9.344 -17.26,-9.344 -9.6,0 -18.47,6.598 -18.47,18.098 0,16.797 13.67,20.992 32.49,20.992 h 3 v 2.277 c 0,6.122 -3,11.758 -11.51,11.758 -7.44,0 -14.02,-3.593 -16.9,-5.996 l -0.85,11.992" /><path
         id="path76"
         style="fill:#231f20;fill-opacity:1;fill-rule:nonzero;stroke:none"
         d="m 2293.79,214.086 c 2.4,-0.957 8.51,-4.082 15.48,-4.082 5.39,0 9.58,1.324 9.58,6.117 0,2.402 -1.2,4.684 -6.59,7.801 l -6.12,3.601 c -6.23,3.707 -13.07,7.676 -13.07,17.387 0,8.512 8.28,17.512 21.34,17.512 7.92,0 14.04,-2.035 15.48,-2.524 l -0.85,-11.515 c -3.71,1.437 -7.67,2.758 -13.07,2.758 -5.99,0 -8.5,-2.278 -8.5,-5.996 0,-3.36 2.63,-5.161 6.94,-7.911 l 7.32,-4.679 c 7.68,-4.918 11.52,-8.391 11.52,-15.598 0,-11.375 -9.6,-18.219 -23.03,-18.219 -7.67,0 -14.03,1.793 -17.15,2.996 l 0.72,12.352" /><path
         id="path78"
         style="fill:#231f20;fill-opacity:1;fill-rule:nonzero;stroke:none"
         d="m 533.203,74.1445 c 8.277,0 11.156,8.0313 11.156,20.375 0,14.2735 -2.281,21.4805 -10.914,21.4805 -8.754,0 -11.757,-9.477 -11.757,-21.1133 0,-11.9883 3.363,-20.7422 11.515,-20.7422 z m -26.387,41.2465 c 0,4.437 -0.113,8.285 -0.476,10.566 h 13.914 c 0.234,-1.812 0.476,-5.406 0.476,-9.602 h 0.36 c 2.402,5.278 6.84,10.559 16.43,10.559 15.351,0 21.71,-14.641 21.71,-31.7773 0,-20.1562 -8.039,-31.9062 -21.343,-31.9062 -8.879,0 -13.793,5.0312 -15.953,9.8359 h -0.246 V 38.293 h -14.872 v 77.098" /><path
         id="path80"
         style="fill:#231f20;fill-opacity:1;fill-rule:nonzero;stroke:none"
         d="m 603.215,94.4102 h -1.324 c -12.703,0 -20.266,-2.6329 -20.266,-11.6329 0,-5.6406 3.719,-9.4687 9.48,-9.4687 8.875,0 12.11,6.5977 12.11,17.625 z m -29.266,27.9418 c 4.203,1.914 10.078,4.562 19.559,4.562 19.183,0 23.621,-9.363 23.621,-24.828 V 75.1016 c 0,-4.4375 0.476,-8.5118 0.836,-10.9141 h -13.43 c -0.722,2.4023 -0.844,5.3984 -0.844,8.3906 h -0.246 c -3.711,-5.0273 -8.382,-9.3476 -17.257,-9.3476 -9.602,0 -18.469,6.5976 -18.469,18.1015 0,16.793 13.672,20.988 32.492,20.988 h 3.004 v 2.278 c 0,6.121 -3.004,11.757 -11.512,11.757 -7.441,0 -14.035,-3.593 -16.906,-5.996 l -0.848,11.993" /><path
         id="path82"
         style="fill:#231f20;fill-opacity:1;fill-rule:nonzero;stroke:none"
         d="m 631.371,115.758 c 0,3.836 -0.121,7.43 -0.476,10.199 h 13.425 c 0.121,-3.727 0.481,-7.562 0.481,-11.281 h 0.242 c 1.805,4.797 6.473,12.238 15.703,12.238 0.969,0 1.68,-0.242 2.524,-0.367 v -13.906 c -1.321,0.355 -2.645,0.589 -4.204,0.589 -6.117,0 -12.82,-3.703 -12.82,-15.2261 V 64.1875 h -14.875 v 51.5705" /><path
         id="path84"
         style="fill:#231f20;fill-opacity:1;fill-rule:nonzero;stroke:none"
         d="m 704.141,94.4102 h -1.325 c -12.711,0 -20.261,-2.6329 -20.261,-11.6329 0,-5.6406 3.722,-9.4687 9.476,-9.4687 8.871,0 12.11,6.5977 12.11,17.625 z m -29.262,27.9418 c 4.203,1.914 10.078,4.562 19.555,4.562 19.183,0 23.625,-9.363 23.625,-24.828 V 75.1016 c 0,-4.4375 0.476,-8.5118 0.832,-10.9141 h -13.438 c -0.711,2.4023 -0.836,5.3984 -0.836,8.3906 h -0.242 c -3.715,-5.0273 -8.383,-9.3476 -17.262,-9.3476 -9.597,0 -18.465,6.5976 -18.465,18.1015 0,16.793 13.672,20.988 32.489,20.988 h 3.004 v 2.278 c 0,6.121 -3.004,11.757 -11.508,11.757 -7.442,0 -14.028,-3.593 -16.91,-5.996 l -0.844,11.993" /><path
         id="path86"
         style="fill:#231f20;fill-opacity:1;fill-rule:nonzero;stroke:none"
         d="m 764.426,154.133 h 14.871 V 64.1875 h -14.871 v 89.9455" /><path
         id="path88"
         style="fill:#231f20;fill-opacity:1;fill-rule:nonzero;stroke:none"
         d="m 826.418,94.4102 h -1.324 c -12.715,0 -20.27,-2.6329 -20.27,-11.6329 0,-5.6406 3.727,-9.4687 9.477,-9.4687 8.879,0 12.117,6.5977 12.117,17.625 z m -29.27,27.9418 c 4.204,1.914 10.079,4.562 19.555,4.562 19.192,0 23.629,-9.363 23.629,-24.828 V 75.1016 c 0,-4.4375 0.481,-8.5118 0.836,-10.9141 H 827.73 c -0.714,2.4023 -0.835,5.3984 -0.835,8.3906 h -0.247 c -3.714,-5.0273 -8.386,-9.3476 -17.261,-9.3476 -9.602,0 -18.469,6.5976 -18.469,18.1015 0,16.793 13.672,20.988 32.496,20.988 h 3.004 v 2.278 c 0,6.121 -3.004,11.757 -11.516,11.757 -7.441,0 -14.027,-3.593 -16.91,-5.996 l -0.844,11.993" /><path
         id="path90"
         style="fill:#231f20;fill-opacity:1;fill-rule:nonzero;stroke:none"
         d="M 919.566,96.0898 909.008,135.18 h -0.235 L 897.262,96.0898 Z m 3.239,-11.746 H 894.023 L 888.031,64.1875 H 872.68 l 28.05,83.7185 h 16.797 l 26.989,-83.7185 h -15.828 l -5.883,20.1563" /><path
         id="path92"
         style="fill:#231f20;fill-opacity:1;fill-rule:nonzero;stroke:none"
         d="m 953.352,154.133 h 14.871 V 64.1875 h -14.871 v 89.9455" /><path
         id="path94"
         style="fill:#231f20;fill-opacity:1;fill-rule:nonzero;stroke:none"
         d="m 984.52,125.957 h 14.871 V 64.1875 H 984.52 Z m -0.235,26.266 h 15.348 v -14.641 h -15.348 v 14.641" /><path
         id="path96"
         style="fill:#231f20;fill-opacity:1;fill-rule:nonzero;stroke:none"
         d="m 1013.89,115.879 c 0,4.437 -0.24,7.797 -0.48,10.078 h 14.87 c 0.12,-3.238 0.48,-6.484 0.48,-9.723 h 0.24 c 2.28,4.797 7.08,10.68 15.58,10.68 10.44,0 13.8,-6.476 15.6,-9.836 2.99,4.317 7.43,9.836 16.55,9.836 13.43,0 17.75,-9.601 17.75,-24.594 V 64.1875 h -14.87 v 38.9765 c 0,7.676 -2.4,11.512 -7.92,11.512 -6.59,0 -10.07,-6.231 -10.07,-13.071 V 64.1875 h -14.88 v 38.9765 c 0,7.676 -2.39,11.512 -7.9,11.512 -6.6,0 -10.08,-6.231 -10.08,-13.071 V 64.1875 h -14.87 v 51.6915" /><path
         id="path98"
         style="fill:#231f20;fill-opacity:1;fill-rule:nonzero;stroke:none"
         d="m 1141.57,100.406 c 0,10.91 -3.6,16.43 -10.32,16.43 -7.78,0 -11.02,-8.277 -11.02,-16.43 z m 11.27,-33.2224 c -3.11,-1.3164 -9.59,-3.9531 -18.46,-3.9531 -19.91,0 -28.55,14.2734 -28.55,30.9492 0,18.4613 9.72,32.7343 25.42,32.7343 13.32,0 24.71,-7.797 24.71,-32.9804 v -2.8789 h -35.73 c 0,-10.5586 4.19,-16.9102 15.71,-16.9102 9.1,0 13.42,2.7578 16.18,4.7969 l 0.72,-11.7578" /><path
         id="path100"
         style="fill:#231f20;fill-opacity:1;fill-rule:nonzero;stroke:none"
         d="m 1167.45,115.758 c 0,3.836 -0.12,7.43 -0.48,10.199 h 13.91 c 0.12,-3.125 0.48,-6.363 0.48,-9.488 h 0.24 c 2.16,3.726 6.35,10.445 16.43,10.445 14.03,0 18.23,-10.445 18.23,-22.906 V 64.1875 h -14.87 v 37.0505 c 0,9.481 -2.41,13.438 -8.52,13.438 -7.79,0 -10.55,-6.594 -10.55,-14.516 V 64.1875 h -14.87 v 51.5705" /><path
         id="path102"
         style="fill:#231f20;fill-opacity:1;fill-rule:nonzero;stroke:none"
         d="m 1235.18,138.66 14.87,4.563 v -17.266 h 12.35 v -10.914 h -12.35 V 83.0234 c 0,-6.5976 2.4,-8.5195 6.71,-8.5195 2.65,0 4.56,0.7188 5.64,1.3203 V 65.2695 c -2.28,-1.082 -5.52,-2.039 -9.95,-2.039 -11.04,0 -17.27,5.0312 -17.27,17.9883 v 33.8242 h -9.83 v 10.914 h 9.83 v 12.703" /><path
         id="path104"
         style="fill:#231f20;fill-opacity:1;fill-rule:nonzero;stroke:none"
         d="m 1304.12,94.4102 h -1.33 c -12.7,0 -20.27,-2.6329 -20.27,-11.6329 0,-5.6406 3.72,-9.4687 9.48,-9.4687 8.88,0 12.12,6.5977 12.12,17.625 z m -29.27,27.9418 c 4.21,1.914 10.08,4.562 19.55,4.562 19.19,0 23.63,-9.363 23.63,-24.828 V 75.1016 c 0,-4.4375 0.48,-8.5118 0.84,-10.9141 h -13.43 c -0.72,2.4023 -0.85,5.3984 -0.85,8.3906 h -0.24 c -3.72,-5.0273 -8.39,-9.3476 -17.27,-9.3476 -9.59,0 -18.46,6.5976 -18.46,18.1015 0,16.793 13.67,20.988 32.49,20.988 h 3.01 v 2.278 c 0,6.121 -3.01,11.757 -11.52,11.757 -7.44,0 -14.03,-3.593 -16.9,-5.996 l -0.85,11.993" /><path
         id="path106"
         style="fill:#231f20;fill-opacity:1;fill-rule:nonzero;stroke:none"
         d="m 1373.76,65.7461 c -3.47,-1.3125 -8.63,-2.5156 -14.62,-2.5156 -20.39,0 -29.03,14.2734 -29.03,31.7773 0,17.6332 9.11,31.9062 29.86,31.9062 4.68,0 10.2,-1.445 12.96,-2.523 l -0.85,-11.75 c -2.63,1.312 -6.35,2.992 -10.43,2.992 -11.27,0 -16.19,-7.551 -16.19,-20.7463 0,-11.5078 5.52,-20.3828 16.91,-20.3828 3.6,0 8.51,1.6758 10.56,3 l 0.83,-11.7578" /><path
         id="path108"
         style="fill:#231f20;fill-opacity:1;fill-rule:nonzero;stroke:none"
         d="m 1384.3,125.957 h 14.87 V 64.1875 h -14.87 z m -0.24,26.266 h 15.35 v -14.641 h -15.35 v 14.641" /><path
         id="path110"
         style="fill:#231f20;fill-opacity:1;fill-rule:nonzero;stroke:none"
         d="m 1440.17,150.063 h 13.92 l -12.24,-17.274 h -9.35 z m -0.6,-76.2857 c 9.6,0 11.76,11.0352 11.76,21.3594 0,10.2973 -2.16,21.2183 -11.76,21.2183 -9.58,0 -11.86,-10.921 -11.86,-21.2183 0,-10.3242 2.28,-21.3594 11.86,-21.3594 z m 0,53.1367 c 12.59,0 27.11,-6.598 27.11,-31.7773 0,-25.9101 -14.52,-31.9062 -27.11,-31.9062 -12.59,0 -27.22,5.9961 -27.22,31.9062 0,25.1793 14.63,31.7773 27.22,31.7773" /><path
         id="path112"
         style="fill:#231f20;fill-opacity:1;fill-rule:nonzero;stroke:none"
         d="m 1478.4,115.758 c 0,3.836 -0.12,7.43 -0.48,10.199 h 13.91 c 0.12,-3.125 0.48,-6.363 0.48,-9.488 h 0.24 c 2.16,3.726 6.36,10.445 16.43,10.445 14.03,0 18.24,-10.445 18.24,-22.906 V 64.1875 h -14.88 v 37.0505 c 0,9.481 -2.4,13.438 -8.52,13.438 -7.78,0 -10.54,-6.594 -10.54,-14.516 V 64.1875 h -14.88 v 51.5705" /><path
         id="path114"
         style="fill:#231f20;fill-opacity:1;fill-rule:nonzero;stroke:none"
         d="m 1593.49,79.2969 h 0.25 l 11.87,46.6601 H 1620 l -22.55,-73.5156 c -2.64,-8.5195 -7.67,-14.8828 -17.63,-14.8828 -3.96,0 -7.32,0.8437 -9.47,1.5664 l 0.84,11.3906 c 1.68,-0.5976 3.36,-1.1992 5.64,-1.1992 4.42,-0.1133 6.35,2.6367 8.26,8.9883 l 1.09,5.2851 -20.51,62.3672 h 15.35 l 12.47,-46.6601" /><path
         id="path116"
         style="fill:#231f20;fill-opacity:1;fill-rule:nonzero;stroke:none"
         d="m 1659.89,154.133 h 14.87 V 64.1875 h -14.87 v 89.9455" /><path
         id="path118"
         style="fill:#231f20;fill-opacity:1;fill-rule:nonzero;stroke:none"
         d="m 1721.88,94.4102 h -1.32 c -12.71,0 -20.27,-2.6329 -20.27,-11.6329 0,-5.6406 3.73,-9.4687 9.48,-9.4687 8.88,0 12.11,6.5977 12.11,17.625 z m -29.26,27.9418 c 4.2,1.914 10.08,4.562 19.55,4.562 19.19,0 23.63,-9.363 23.63,-24.828 V 75.1016 c 0,-4.4375 0.47,-8.5118 0.83,-10.9141 h -13.43 c -0.71,2.4023 -0.84,5.3984 -0.84,8.3906 h -0.25 c -3.71,-5.0273 -8.38,-9.3476 -17.26,-9.3476 -9.6,0 -18.46,6.5976 -18.46,18.1015 0,16.793 13.67,20.988 32.49,20.988 h 3 v 2.278 c 0,6.121 -3,11.757 -11.51,11.757 -7.44,0 -14.03,-3.593 -16.91,-5.996 l -0.84,11.993" /><path
         id="path120"
         style="fill:#231f20;fill-opacity:1;fill-rule:nonzero;stroke:none"
         d="m 1815.02,96.0898 -10.55,39.0902 h -0.24 l -11.51,-39.0902 z m 3.24,-11.746 h -28.78 l -5.99,-20.1563 h -15.35 l 28.06,83.7185 h 16.79 l 26.98,-83.7185 h -15.82 l -5.89,20.1563" /><path
         id="path122"
         style="fill:#231f20;fill-opacity:1;fill-rule:nonzero;stroke:none"
         d="m 1870.75,75.1016 c 9.36,0 13.07,6.7187 13.07,20.7422 0,12.9492 -4.91,19.9142 -11.99,19.7892 -7.79,-0.121 -10.79,-7.309 -10.79,-19.9103 0,-14.5039 4.68,-20.6211 9.71,-20.6211 z m -21.46,-20.5039 c 3.48,-1.9219 10.43,-5.2813 18.22,-5.2813 14.03,0 16.31,9.7227 16.31,19.4336 v 5.875 h -0.23 c -2.4,-4.7969 -6.6,-10.4375 -16.32,-10.4375 -8.63,0 -21.58,5.7617 -21.58,30.6992 0,17.0313 6.12,32.0273 22.3,32.0273 9,0 13.2,-5.16 16.31,-10.559 h 0.48 c 0,3.239 0.37,6.364 0.49,9.602 h 13.43 c -0.24,-3.238 -0.48,-6.484 -0.48,-9.723 V 70.6641 c 0,-19.3008 -5.88,-33.1055 -28.55,-33.1055 -9.83,0 -17.62,2.5234 -21.22,3.8477 l 0.84,13.1914" /><path
         id="path124"
         style="fill:#231f20;fill-opacity:1;fill-rule:nonzero;stroke:none"
         d="m 1912.22,115.758 c 0,3.836 -0.12,7.43 -0.47,10.199 h 13.42 c 0.12,-3.727 0.48,-7.562 0.48,-11.281 h 0.24 c 1.81,4.797 6.48,12.238 15.71,12.238 0.97,0 1.68,-0.242 2.53,-0.367 v -13.906 c -1.33,0.355 -2.65,0.589 -4.21,0.589 -6.12,0 -12.83,-3.703 -12.83,-15.2261 V 64.1875 h -14.87 v 51.5705" /><path
         id="path126"
         style="fill:#231f20;fill-opacity:1;fill-rule:nonzero;stroke:none"
         d="m 1955.38,125.957 h 14.86 V 64.1875 h -14.86 z m -0.24,26.266 h 15.35 v -14.641 h -15.35 v 14.641" /><path
         id="path128"
         style="fill:#231f20;fill-opacity:1;fill-rule:nonzero;stroke:none"
         d="m 2027.08,65.7461 c -3.48,-1.3125 -8.64,-2.5156 -14.63,-2.5156 -20.39,0 -29.02,14.2734 -29.02,31.7773 0,17.6332 9.11,31.9062 29.86,31.9062 4.67,0 10.19,-1.445 12.95,-2.523 l -0.84,-11.75 c -2.64,1.312 -6.36,2.992 -10.43,2.992 -11.27,0 -16.19,-7.551 -16.19,-20.7463 0,-11.5078 5.52,-20.3828 16.91,-20.3828 3.59,0 8.5,1.6758 10.55,3 l 0.84,-11.7578" /><path
         id="path130"
         style="fill:#231f20;fill-opacity:1;fill-rule:nonzero;stroke:none"
         d="m 2084.99,74.3906 c 0,-3.8476 0.12,-7.4414 0.47,-10.2031 h -13.91 c -0.12,3.1172 -0.48,6.3555 -0.48,9.4688 l -0.36,0.121 0.12,-0.121 c -2.88,-4.5508 -6.71,-10.4258 -16.42,-10.4258 -14.04,0 -18.23,10.4258 -18.23,22.9062 v 39.8203 h 14.87 V 88.8945 c 0,-9.4765 2.64,-13.4257 8.87,-13.4257 7.91,0 10.19,7.1875 10.19,15.1054 v 35.3828 h 14.88 V 74.3906" /><path
         id="path132"
         style="fill:#231f20;fill-opacity:1;fill-rule:nonzero;stroke:none"
         d="m 2099.83,154.133 h 14.87 V 64.1875 h -14.87 v 89.9455" /><path
         id="path134"
         style="fill:#231f20;fill-opacity:1;fill-rule:nonzero;stroke:none"
         d="m 2135.08,138.66 14.87,4.563 v -17.266 h 12.35 v -10.914 h -12.35 V 83.0234 c 0,-6.5976 2.39,-8.5195 6.71,-8.5195 2.64,0 4.56,0.7188 5.64,1.3203 V 65.2695 c -2.28,-1.082 -5.52,-2.039 -9.96,-2.039 -11.03,0 -17.26,5.0312 -17.26,17.9883 v 33.8242 h -9.84 v 10.914 h 9.84 v 12.703" /><path
         id="path136"
         style="fill:#231f20;fill-opacity:1;fill-rule:nonzero;stroke:none"
         d="m 2220.56,74.3906 c 0,-3.8476 0.11,-7.4414 0.48,-10.2031 h -13.91 c -0.12,3.1172 -0.48,6.3555 -0.48,9.4688 l -0.36,0.121 0.13,-0.121 c -2.88,-4.5508 -6.72,-10.4258 -16.44,-10.4258 -14.03,0 -18.23,10.4258 -18.23,22.9062 v 39.8203 h 14.88 V 88.8945 c 0,-9.4765 2.63,-13.4257 8.86,-13.4257 7.92,0 10.2,7.1875 10.2,15.1054 v 35.3828 h 14.87 V 74.3906" /><path
         id="path138"
         style="fill:#231f20;fill-opacity:1;fill-rule:nonzero;stroke:none"
         d="m 2234.45,115.758 c 0,3.836 -0.12,7.43 -0.48,10.199 h 13.43 c 0.12,-3.727 0.48,-7.562 0.48,-11.281 h 0.24 c 1.8,4.797 6.47,12.238 15.7,12.238 0.97,0 1.68,-0.242 2.53,-0.367 v -13.906 c -1.33,0.355 -2.63,0.589 -4.21,0.589 -6.1,0 -12.82,-3.703 -12.82,-15.2261 V 64.1875 h -14.87 v 51.5705" /><path
         id="path140"
         style="fill:#231f20;fill-opacity:1;fill-rule:nonzero;stroke:none"
         d="m 2307.22,94.4102 h -1.33 c -12.7,0 -20.26,-2.6329 -20.26,-11.6329 0,-5.6406 3.72,-9.4687 9.48,-9.4687 8.87,0 12.11,6.5977 12.11,17.625 z m -29.27,27.9418 c 4.21,1.914 10.08,4.562 19.56,4.562 19.18,0 23.62,-9.363 23.62,-24.828 V 75.1016 c 0,-4.4375 0.48,-8.5118 0.84,-10.9141 h -13.43 c -0.72,2.4023 -0.84,5.3984 -0.84,8.3906 h -0.25 c -3.71,-5.0273 -8.38,-9.3476 -17.26,-9.3476 -9.6,0 -18.47,6.5976 -18.47,18.1015 0,16.793 13.68,20.988 32.49,20.988 h 3.01 v 2.278 c 0,6.121 -3.01,11.757 -11.51,11.757 -7.44,0 -14.04,-3.593 -16.91,-5.996 l -0.85,11.993" /></g></g></svg>